<svg height="200" width="200" xmlns="http://www.w3.org/2000/svg" viewBox="0 0 511.997 511.997">
  <g stroke-width="0"></g>
  <g stroke-linecap="round" stroke-linejoin="round"></g>
  <path style="fill:#ff6243" d="M 385.259 113.083 C 375.693 109.123 364.683 111.312 357.36 118.631 L 320.194 155.799 L 277.594 88.855 C 267.534 73.048 244.46 73.048 234.4 88.855 L 191.8 155.799 L 154.632 118.631 C 140.693 104.697 116.899 111.078 111.801 130.116 C 111.223 132.274 110.93 134.499 110.93 136.734 L 110.93 290.333 C 110.93 370.322 176.006 435.399 255.996 435.399 C 335.986 435.399 401.062 370.323 401.062 290.333 L 401.062 136.734 C 401.065 126.379 394.827 117.043 385.259 113.083"></path>
  <path style="fill:#ff0c38" d="M 255.997 77 C 247.245 77 239.099 81.471 234.4 88.854 L 191.8 155.798 L 154.632 118.63 C 140.694 104.696 116.899 111.075 111.801 130.113 C 111.222 132.272 110.929 134.498 110.929 136.733 L 110.929 290.332 C 110.929 370.321 176.005 435.398 255.995 435.398 L 255.995 77 L 255.997 77 Z"></path>
</svg>